<svg width="136" height="40" viewBox="0 0 136 40" fill="none" xmlns="http://www.w3.org/2000/svg">
<path d="M3.91602 21.7168V27H1.44531V12.7812H6.88477C8.47331 12.7812 9.73307 13.1947 10.6641 14.0215C11.6016 14.8483 12.0703 15.9421 12.0703 17.3027C12.0703 18.696 11.6113 19.7799 10.6934 20.5547C9.7819 21.3294 8.5026 21.7168 6.85547 21.7168H3.91602ZM3.91602 19.7344H6.88477C7.76367 19.7344 8.43424 19.5293 8.89648 19.1191C9.35872 18.7025 9.58984 18.1035 9.58984 17.3223C9.58984 16.554 9.35547 15.9421 8.88672 15.4863C8.41797 15.0241 7.77344 14.7865 6.95312 14.7734H3.91602V19.7344ZM19.541 18.6016C19.2285 18.5495 18.9062 18.5234 18.5742 18.5234C17.487 18.5234 16.7546 18.9401 16.377 19.7734V27H14.0039V16.4336H16.2695L16.3281 17.6152C16.901 16.6973 17.6953 16.2383 18.7109 16.2383C19.0495 16.2383 19.3294 16.2839 19.5508 16.375L19.541 18.6016ZM20.2441 21.6191C20.2441 20.584 20.4492 19.653 20.8594 18.8262C21.2695 17.9928 21.8457 17.3548 22.5879 16.9121C23.3301 16.4629 24.1829 16.2383 25.1465 16.2383C26.5723 16.2383 27.7279 16.6973 28.6133 17.6152C29.5052 18.5332 29.987 19.7507 30.0586 21.2676L30.0684 21.8242C30.0684 22.8659 29.8665 23.7969 29.4629 24.6172C29.0658 25.4375 28.4928 26.0723 27.7441 26.5215C27.002 26.9707 26.1426 27.1953 25.166 27.1953C23.6751 27.1953 22.4805 26.7005 21.582 25.7109C20.6901 24.7148 20.2441 23.39 20.2441 21.7363V21.6191ZM22.6172 21.8242C22.6172 22.9115 22.8418 23.7643 23.291 24.3828C23.7402 24.9948 24.3652 25.3008 25.166 25.3008C25.9668 25.3008 26.5885 24.9883 27.0312 24.3633C27.4805 23.7383 27.7051 22.8236 27.7051 21.6191C27.7051 20.5514 27.474 19.7051 27.0117 19.0801C26.556 18.4551 25.9342 18.1426 25.1465 18.1426C24.3717 18.1426 23.7565 18.4518 23.3008 19.0703C22.8451 19.6823 22.6172 20.6003 22.6172 21.8242ZM33.5059 24.5C33.9486 24.5 34.2904 24.627 34.5312 24.8809C34.7721 25.1283 34.8926 25.4408 34.8926 25.8184C34.8926 26.1895 34.7721 26.4987 34.5312 26.7461C34.2904 26.987 33.9486 27.1074 33.5059 27.1074C33.0827 27.1074 32.7474 26.987 32.5 26.7461C32.2526 26.5052 32.1289 26.196 32.1289 25.8184C32.1289 25.4408 32.2493 25.1283 32.4902 24.8809C32.7311 24.627 33.0697 24.5 33.5059 24.5ZM33.5059 16.209C33.9486 16.209 34.2904 16.3359 34.5312 16.5898C34.7721 16.8372 34.8926 17.1497 34.8926 17.5273C34.8926 17.8984 34.7721 18.2077 34.5312 18.4551C34.2904 18.696 33.9486 18.8164 33.5059 18.8164C33.0827 18.8164 32.7474 18.696 32.5 18.4551C32.2526 18.2142 32.1289 17.9049 32.1289 17.5273C32.1289 17.1497 32.2493 16.8372 32.4902 16.5898C32.7311 16.3359 33.0697 16.209 33.5059 16.209Z" fill="#212529"/>
<path d="M39.6191 16.4336L39.6875 17.5371C40.4297 16.6712 41.4453 16.2383 42.7344 16.2383C44.1471 16.2383 45.1139 16.7786 45.6348 17.8594C46.403 16.7786 47.4837 16.2383 48.877 16.2383C50.0423 16.2383 50.9082 16.5605 51.4746 17.2051C52.0475 17.8496 52.3405 18.8001 52.3535 20.0566V27H49.9805V20.125C49.9805 19.4544 49.834 18.9629 49.541 18.6504C49.248 18.3379 48.763 18.1816 48.0859 18.1816C47.5456 18.1816 47.1029 18.3281 46.7578 18.6211C46.4193 18.9076 46.1816 19.2852 46.0449 19.7539L46.0547 27H43.6816V20.0469C43.6491 18.8034 43.0143 18.1816 41.7773 18.1816C40.8268 18.1816 40.153 18.569 39.7559 19.3438V27H37.3828V16.4336H39.6191ZM61.1035 27C60.9993 26.7982 60.9082 26.4694 60.8301 26.0137C60.0749 26.8014 59.1504 27.1953 58.0566 27.1953C56.9954 27.1953 56.1296 26.8926 55.459 26.2871C54.7884 25.6816 54.4531 24.9329 54.4531 24.041C54.4531 22.9147 54.8698 22.0521 55.7031 21.4531C56.543 20.8477 57.7409 20.5449 59.2969 20.5449H60.752V19.8516C60.752 19.3047 60.599 18.8685 60.293 18.543C59.987 18.2109 59.5215 18.0449 58.8965 18.0449C58.3561 18.0449 57.9134 18.1816 57.5684 18.4551C57.2233 18.722 57.0508 19.0638 57.0508 19.4805H54.6777C54.6777 18.901 54.8698 18.3607 55.2539 17.8594C55.638 17.3516 56.1589 16.9544 56.8164 16.668C57.4805 16.3815 58.2194 16.2383 59.0332 16.2383C60.2702 16.2383 61.2565 16.5508 61.9922 17.1758C62.7279 17.7943 63.1055 18.6667 63.125 19.793V24.5586C63.125 25.5091 63.2585 26.2676 63.5254 26.834V27H61.1035ZM58.4961 25.291C58.9648 25.291 59.4043 25.1771 59.8145 24.9492C60.2311 24.7214 60.5436 24.4154 60.752 24.0312V22.0391H59.4727C58.5938 22.0391 57.9329 22.1921 57.4902 22.498C57.0475 22.804 56.8262 23.237 56.8262 23.7969C56.8262 24.2526 56.9759 24.6172 57.2754 24.8906C57.5814 25.1576 57.9883 25.291 58.4961 25.291ZM67.8125 16.4336L67.8809 17.6543C68.6621 16.7103 69.6875 16.2383 70.957 16.2383C73.1576 16.2383 74.2773 17.498 74.3164 20.0176V27H71.9434V20.1543C71.9434 19.4837 71.7969 18.9889 71.5039 18.6699C71.2174 18.3444 70.7454 18.1816 70.0879 18.1816C69.1309 18.1816 68.418 18.6146 67.9492 19.4805V27H65.5762V16.4336H67.8125ZM83.0566 27C82.9525 26.7982 82.8613 26.4694 82.7832 26.0137C82.028 26.8014 81.1035 27.1953 80.0098 27.1953C78.9486 27.1953 78.0827 26.8926 77.4121 26.2871C76.7415 25.6816 76.4062 24.9329 76.4062 24.041C76.4062 22.9147 76.8229 22.0521 77.6562 21.4531C78.4961 20.8477 79.694 20.5449 81.25 20.5449H82.7051V19.8516C82.7051 19.3047 82.5521 18.8685 82.2461 18.543C81.9401 18.2109 81.4746 18.0449 80.8496 18.0449C80.3092 18.0449 79.8665 18.1816 79.5215 18.4551C79.1764 18.722 79.0039 19.0638 79.0039 19.4805H76.6309C76.6309 18.901 76.8229 18.3607 77.207 17.8594C77.5911 17.3516 78.112 16.9544 78.7695 16.668C79.4336 16.3815 80.1725 16.2383 80.9863 16.2383C82.2233 16.2383 83.2096 16.5508 83.9453 17.1758C84.681 17.7943 85.0586 18.6667 85.0781 19.793V24.5586C85.0781 25.5091 85.2116 26.2676 85.4785 26.834V27H83.0566ZM80.4492 25.291C80.918 25.291 81.3574 25.1771 81.7676 24.9492C82.1842 24.7214 82.4967 24.4154 82.7051 24.0312V22.0391H81.4258C80.5469 22.0391 79.8861 22.1921 79.4434 22.498C79.0007 22.804 78.7793 23.237 78.7793 23.7969C78.7793 24.2526 78.929 24.6172 79.2285 24.8906C79.5345 25.1576 79.9414 25.291 80.4492 25.291ZM87.1484 21.6387C87.1484 19.998 87.5326 18.6895 88.3008 17.7129C89.0755 16.7298 90.1009 16.2383 91.377 16.2383C92.5814 16.2383 93.5286 16.6582 94.2188 17.498L94.3262 16.4336H96.4648V26.6777C96.4648 28.0645 96.0319 29.1582 95.166 29.959C94.3066 30.7598 93.1445 31.1602 91.6797 31.1602C90.9049 31.1602 90.1465 30.9974 89.4043 30.6719C88.6686 30.3529 88.1087 29.9329 87.7246 29.4121L88.8477 27.9863C89.5768 28.8522 90.4753 29.2852 91.543 29.2852C92.3307 29.2852 92.9525 29.0703 93.4082 28.6406C93.8639 28.2174 94.0918 27.5924 94.0918 26.7656V26.0527C93.4082 26.8145 92.4967 27.1953 91.3574 27.1953C90.1204 27.1953 89.1081 26.7038 88.3203 25.7207C87.5391 24.7376 87.1484 23.377 87.1484 21.6387ZM89.5117 21.8438C89.5117 22.9049 89.7266 23.7415 90.1562 24.3535C90.5924 24.959 91.1947 25.2617 91.9629 25.2617C92.9199 25.2617 93.6296 24.8516 94.0918 24.0312V19.3828C93.6426 18.582 92.9395 18.1816 91.9824 18.1816C91.2012 18.1816 90.5924 18.4909 90.1562 19.1094C89.7266 19.7279 89.5117 20.6393 89.5117 21.8438ZM103.564 27.1953C102.061 27.1953 100.84 26.7233 99.9023 25.7793C98.9714 24.8288 98.5059 23.5658 98.5059 21.9902V21.6973C98.5059 20.6426 98.7077 19.7018 99.1113 18.875C99.5215 18.0417 100.094 17.3939 100.83 16.9316C101.566 16.4694 102.386 16.2383 103.291 16.2383C104.73 16.2383 105.84 16.6973 106.621 17.6152C107.409 18.5332 107.803 19.832 107.803 21.5117V22.4688H100.898C100.97 23.3411 101.26 24.0312 101.768 24.5391C102.282 25.0469 102.926 25.3008 103.701 25.3008C104.788 25.3008 105.674 24.8613 106.357 23.9824L107.637 25.2031C107.214 25.8346 106.647 26.3262 105.938 26.6777C105.234 27.0228 104.443 27.1953 103.564 27.1953ZM103.281 18.1426C102.63 18.1426 102.103 18.3704 101.699 18.8262C101.302 19.2819 101.048 19.9167 100.938 20.7305H105.459V20.5547C105.407 19.7604 105.195 19.1615 104.824 18.7578C104.453 18.3477 103.939 18.1426 103.281 18.1426ZM115.186 18.6016C114.873 18.5495 114.551 18.5234 114.219 18.5234C113.132 18.5234 112.399 18.9401 112.021 19.7734V27H109.648V16.4336H111.914L111.973 17.6152C112.546 16.6973 113.34 16.2383 114.355 16.2383C114.694 16.2383 114.974 16.2839 115.195 16.375L115.186 18.6016Z" fill="#FD8E39"/>
</svg>
